<svg width="35" height="35" viewBox="0 0 35 35" fill="none" xmlns="http://www.w3.org/2000/svg">
<g id="uil:chart-line">
<path id="Vector" d="M10.2083 22.7214C10.7885 22.7214 11.3449 22.4977 11.7551 22.0995C12.1654 21.7013 12.3958 21.1612 12.3958 20.5981C12.4013 20.5274 12.4013 20.4564 12.3958 20.3857L16.4646 16.4363H17.1354L19.4833 18.7153V18.8286C19.4833 19.3917 19.7138 19.9318 20.124 20.33C20.5343 20.7282 21.0907 20.952 21.6708 20.952C22.251 20.952 22.8074 20.7282 23.2176 20.33C23.6279 19.9318 23.8583 19.3917 23.8583 18.8286V18.7153L29.1667 13.5202C29.5993 13.5202 30.0222 13.3956 30.382 13.1623C30.7417 12.929 31.0221 12.5974 31.1877 12.2094C31.3532 11.8214 31.3965 11.3944 31.3121 10.9825C31.2277 10.5707 31.0194 10.1923 30.7135 9.89535C30.4075 9.59839 30.0178 9.39616 29.5934 9.31423C29.1691 9.2323 28.7293 9.27435 28.3295 9.43506C27.9298 9.59577 27.5882 9.86793 27.3478 10.2171C27.1075 10.5663 26.9792 10.9768 26.9792 11.3968C26.9737 11.4675 26.9737 11.5385 26.9792 11.6091L21.7146 16.7194H21.4812L18.9583 14.228C18.9583 13.6648 18.7279 13.1247 18.3176 12.7265C17.9074 12.3283 17.351 12.1046 16.7708 12.1046C16.1907 12.1046 15.6343 12.3283 15.224 12.7265C14.8138 13.1247 14.5833 13.6648 14.5833 14.228L10.2083 18.4747C9.62817 18.4747 9.07177 18.6984 8.66154 19.0966C8.2513 19.4948 8.02083 20.0349 8.02083 20.5981C8.02083 21.1612 8.2513 21.7013 8.66154 22.0995C9.07177 22.4977 9.62817 22.7214 10.2083 22.7214ZM29.8958 28.3838H5.10417V4.3189C5.10417 3.94346 4.95052 3.58341 4.67703 3.31793C4.40354 3.05246 4.03261 2.90332 3.64583 2.90332C3.25906 2.90332 2.88813 3.05246 2.61464 3.31793C2.34115 3.58341 2.1875 3.94346 2.1875 4.3189V29.7993C2.1875 30.1748 2.34115 30.5348 2.61464 30.8003C2.88813 31.0658 3.25906 31.2149 3.64583 31.2149H29.8958C30.2826 31.2149 30.6535 31.0658 30.927 30.8003C31.2005 30.5348 31.3542 30.1748 31.3542 29.7993C31.3542 29.4239 31.2005 29.0638 30.927 28.7984C30.6535 28.5329 30.2826 28.3838 29.8958 28.3838Z" fill="#11263C"/>
</g>
</svg>
