<svg width="15" height="16" viewBox="0 0 15 16" fill="none" xmlns="http://www.w3.org/2000/svg">
<path d="M6.9987 0.5C7.45895 0.5 7.83203 0.8731 7.83203 1.33333C7.83203 1.76069 7.51034 2.11292 7.09588 2.16106L6.9987 2.16667H2.83203C2.40467 2.16667 2.05244 2.48837 2.0043 2.90282L1.9987 3V13C1.9987 13.4274 2.3204 13.7796 2.73485 13.8277L2.83203 13.8333H6.58203C7.04228 13.8333 7.41536 14.2064 7.41536 14.6667C7.41536 15.094 7.09368 15.4463 6.67922 15.4944L6.58203 15.5H2.83203C1.50063 15.5 0.412314 14.4593 0.336275 13.1469L0.332031 13V3C0.332031 1.6686 1.3728 0.580283 2.68514 0.504244L2.83203 0.5H6.9987ZM11.7545 5.05372L14.1116 7.41075C14.437 7.73617 14.437 8.26383 14.1116 8.58925L11.7545 10.9462C11.4291 11.2717 10.9015 11.2717 10.576 10.9462C10.2506 10.6208 10.2506 10.0932 10.576 9.76775L11.5105 8.83333H6.9987C6.53845 8.83333 6.16536 8.46025 6.16536 8C6.16536 7.53975 6.53845 7.16667 6.9987 7.16667H11.5105L10.576 6.23223C10.2506 5.9068 10.2506 5.37916 10.576 5.05372C10.9015 4.72828 11.4291 4.72828 11.7545 5.05372Z" fill="#B5BDC9"/>
</svg>
