<svg width="35" height="35" viewBox="0 0 35 35" fill="none" xmlns="http://www.w3.org/2000/svg">
<path d="M18.957 4.375C15.4761 4.375 12.1377 5.75781 9.67625 8.21922C7.21484 10.6806 5.83203 14.019 5.83203 17.5H1.45703L7.12995 23.1729L7.23203 23.3771L13.1237 17.5H8.7487C8.7487 11.8562 13.3133 7.29167 18.957 7.29167C24.6008 7.29167 29.1654 11.8562 29.1654 17.5C29.1654 23.1437 24.6008 27.7083 18.957 27.7083C16.1424 27.7083 13.5904 26.5562 11.7529 24.7042L9.68203 26.775C10.8972 27.9974 12.3425 28.9669 13.9344 29.6277C15.5264 30.2885 17.2334 30.6275 18.957 30.625C22.438 30.625 25.7764 29.2422 28.2378 26.7808C30.6992 24.3194 32.082 20.981 32.082 17.5C32.082 14.019 30.6992 10.6806 28.2378 8.21922C25.7764 5.75781 22.438 4.375 18.957 4.375ZM17.4987 11.6667V18.9583L23.6966 22.6333L24.8195 20.7667L19.6862 17.7187V11.6667H17.4987Z" fill="black"/>
</svg>
