<svg width="35" height="31" viewBox="0 0 35 31" fill="none" xmlns="http://www.w3.org/2000/svg">
<path d="M14.8859 0.33703L12.0914 4.33907C11.2547 4.66801 10.4781 5.27105 9.82188 6.10122L8.36719 7.95735C7.80938 8.67005 7.08203 9.06164 6.33281 9.06164H5.25V19.0863C6.36562 19.1333 7.42656 19.7833 8.21953 20.919L10.1664 23.7071L10.5492 24.2553L12.0258 26.3699C12.3648 26.8554 12.9227 26.8554 13.2617 26.3699C13.3547 26.2367 13.4258 26.0801 13.4641 25.9156C13.6172 25.3126 13.9727 24.8583 14.4102 24.7174C14.8477 24.5764 15.307 24.7644 15.6242 25.2264L16.2148 26.0566C16.8492 26.9651 17.8773 26.9651 18.5062 26.0566C18.8016 25.6337 18.9602 25.0933 18.9766 24.5372C18.9984 23.848 19.2828 23.2372 19.7203 22.9396C20.1578 22.6419 20.6664 22.7046 21.0547 23.104C21.5687 23.6287 22.2852 23.5583 22.7445 22.9004C23.2586 22.1642 23.2586 20.9738 22.7445 20.2454L18.5992 14.3089L16.6414 16.8934C15.1484 18.867 12.857 18.8984 11.3367 16.9639C9.60313 14.7553 9.56484 10.9021 11.2492 8.62305L15.0828 3.43842C16.5812 1.41782 18.5609 0.290039 20.6227 0.290039C22.5969 0.290039 24.5055 1.33167 25.9766 3.20346L27.6227 5.30238H34.125C34.6063 5.30238 35 5.86627 35 6.55546V22.8456C35 24.2318 34.218 25.3517 33.25 25.3517H31.5C30.8547 25.3517 30.2859 24.8505 29.9852 24.0987H25.3422C25.1562 24.6234 24.9102 25.1246 24.6039 25.5632C23.6687 26.9024 22.3727 27.4272 21.1586 27.1374C20.9617 27.7091 20.6937 28.2417 20.3602 28.7194C18.8672 30.8575 16.532 31.0689 14.8695 29.3538C13.4969 30.9828 11.4516 30.881 10.1664 29.0327L8.69531 26.9181L8.3125 26.3699L6.36563 23.5818C6.06484 23.151 5.67109 22.9004 5.25 22.8534C5.25 24.2318 4.4625 25.3517 3.5 25.3517H1.75C0.782031 25.3517 0 24.2318 0 22.8456V6.55546C0 5.86627 0.39375 5.30238 0.875 5.30238H6.33281C6.44219 5.30238 6.54609 5.24756 6.62266 5.14574L8.07188 3.29744C9.59766 1.36299 11.5609 0.290039 13.6008 0.290039H14.1641C14.4047 0.290039 14.6508 0.305703 14.8859 0.33703ZM29.75 20.3394V9.06164H27.125C26.8023 9.06164 26.4906 8.88934 26.2555 8.5839L24.2375 6.01507C23.2422 4.74632 21.957 4.04929 20.6227 4.04929C19.2336 4.04929 17.8992 4.80898 16.8875 6.17171L13.0539 11.3563C12.4906 12.1239 12.5016 13.4161 13.0812 14.1523C13.5898 14.8023 14.3609 14.7867 14.8586 14.1288L18.7906 8.92849C19.3211 8.22363 20.1523 8.27062 20.6445 9.03814C21.1367 9.80565 21.1039 10.9883 20.568 11.6931L20.5242 11.7558L24.593 17.5826C25.1398 18.3658 25.4953 19.3291 25.6539 20.3316H29.7445L29.75 20.3394ZM3.5 21.5925C3.5 21.2601 3.40781 20.9414 3.24372 20.7064C3.07962 20.4714 2.85706 20.3394 2.625 20.3394C2.39294 20.3394 2.17038 20.4714 2.00628 20.7064C1.84219 20.9414 1.75 21.2601 1.75 21.5925C1.75 21.9248 1.84219 22.2436 2.00628 22.4786C2.17038 22.7136 2.39294 22.8456 2.625 22.8456C2.85706 22.8456 3.07962 22.7136 3.24372 22.4786C3.40781 22.2436 3.5 21.9248 3.5 21.5925ZM32.375 22.8456C32.6071 22.8456 32.8296 22.7136 32.9937 22.4786C33.1578 22.2436 33.25 21.9248 33.25 21.5925C33.25 21.2601 33.1578 20.9414 32.9937 20.7064C32.8296 20.4714 32.6071 20.3394 32.375 20.3394C32.1429 20.3394 31.9204 20.4714 31.7563 20.7064C31.5922 20.9414 31.5 21.2601 31.5 21.5925C31.5 21.9248 31.5922 22.2436 31.7563 22.4786C31.9204 22.7136 32.1429 22.8456 32.375 22.8456Z" fill="#121A2C"/>
</svg>
