<svg width="46" height="38" viewBox="0 0 46 38" fill="none" xmlns="http://www.w3.org/2000/svg">
<rect x="0.5" y="0.872925" width="44.5035" height="36.2544" stroke="#4EA4D9"/>
<path d="M34.1286 23.6568H30.3367V26.7614H34.1286M34.1286 17.4478H30.3367V20.5523H34.1286M37.9206 29.8659H22.7527V26.7614H26.5447V23.6568H22.7527V20.5523H26.5447V17.4478H22.7527V14.3433H37.9206M18.9608 11.2387H15.1688V8.13419H18.9608M18.9608 17.4478H15.1688V14.3433H18.9608M18.9608 23.6568H15.1688V20.5523H18.9608M18.9608 29.8659H15.1688V26.7614H18.9608M11.3769 11.2387H7.58492V8.13419H11.3769M11.3769 17.4478H7.58492V14.3433H11.3769M11.3769 23.6568H7.58492V20.5523H11.3769M11.3769 29.8659H7.58492V26.7614H11.3769M22.7527 11.2387V5.02966H3.79297V32.9704H41.7125V11.2387H22.7527Z" fill="#4EA4D9"/>
</svg>
