<svg width="74" height="74" viewBox="0 0 74 74" fill="none" xmlns="http://www.w3.org/2000/svg">
<circle cx="37.2603" cy="36.7743" r="36.5806" fill="url(#paint0_linear_137_7867)"/>
<path d="M52.9002 38.4436C53.998 38.4436 54.8962 37.5454 54.8962 36.4477C54.8962 35.3499 53.998 34.4517 52.9002 34.4517H50.9042V22.4759H52.9002C53.998 22.4759 54.8962 21.5777 54.8962 20.4799C54.8962 19.3821 53.998 18.4839 52.9002 18.4839H20.9647C19.8669 18.4839 18.9688 19.3821 18.9688 20.4799C18.9688 21.5777 19.8669 22.4759 20.9647 22.4759H22.9607V34.4517H20.9647C19.8669 34.4517 18.9688 35.3499 18.9688 36.4477C18.9688 37.5454 19.8669 38.4436 20.9647 38.4436H22.9607V50.4194H20.9647C19.8669 50.4194 18.9688 51.3176 18.9688 52.4154C18.9688 53.5132 19.8669 54.4114 20.9647 54.4114H52.9002C53.998 54.4114 54.8962 53.5132 54.8962 52.4154C54.8962 51.3176 53.998 50.4194 52.9002 50.4194H50.9042V38.4436H52.9002ZM36.9325 44.4315C33.6192 44.4315 30.9446 41.7969 30.9446 38.5434C30.9446 35.9487 31.9825 35.2102 36.9325 29.4618C41.8625 35.1702 42.9204 35.9287 42.9204 38.5434C42.9204 41.7969 40.2458 44.4315 36.9325 44.4315Z" fill="#0F5FC2"/>
<defs>
<linearGradient id="paint0_linear_137_7867" x1="65.6103" y1="0.193605" x2="37.2603" y2="73.3549" gradientUnits="userSpaceOnUse">
<stop stop-color="#CAF1FF"/>
<stop offset="1" stop-color="#CDF4FF"/>
</linearGradient>
</defs>
</svg>
