<svg width="35" height="35" viewBox="0 0 35 35" fill="none" xmlns="http://www.w3.org/2000/svg">
<path d="M26.2503 29.9238C26.2503 26.9039 25.0212 24.0076 22.8332 21.8722C20.6453 19.7368 17.6779 18.5371 14.5837 18.5371C11.4895 18.5371 8.522 19.7368 6.33408 21.8722C4.14616 24.0076 2.91699 26.9039 2.91699 29.9238" stroke="black" stroke-width="2" stroke-linecap="round" stroke-linejoin="round"/>
<path d="M32.0833 27.943C32.0833 23.1533 29.1667 18.7048 26.25 16.5729C27.2087 15.8718 27.9754 14.9513 28.4821 13.8927C28.9888 12.8342 29.2199 11.6702 29.155 10.5038C29.0901 9.33739 28.7312 8.20458 28.1101 7.20559C27.4889 6.2066 26.6246 5.37225 25.5938 4.77637" stroke="black" stroke-width="2" stroke-linecap="round" stroke-linejoin="round"/>
<path d="M14.5846 17.9939C18.6117 17.9939 21.8763 14.8123 21.8763 10.8876C21.8763 6.96286 18.6117 3.78125 14.5846 3.78125C10.5576 3.78125 7.29297 6.96286 7.29297 10.8876C7.29297 14.8123 10.5576 17.9939 14.5846 17.9939Z" stroke="black" stroke-width="2" stroke-linecap="round" stroke-linejoin="round"/>
</svg>
