<svg width="36" height="37" viewBox="0 0 36 37" fill="none" xmlns="http://www.w3.org/2000/svg">
<g clip-path="url(#clip0_137_7890)">
<path d="M10.0486 3.67558C8.70949 4.34514 8.26312 6.13062 9.15586 7.02336C10.2718 5.01469 12.0573 5.68425 14.7355 7.9161C16.521 9.4784 18.976 8.13929 18.976 8.13929C18.976 8.13929 19.4224 10.8175 22.7702 11.2639C26.5643 11.7103 27.9034 9.4784 27.9034 9.4784C27.9034 9.4784 28.7962 11.7103 32.144 10.3711C34.599 9.4784 33.7063 7.9161 33.7063 7.9161C33.7063 7.9161 35.9381 7.9161 35.9381 6.35381C35.9381 4.34514 33.4831 4.56832 33.4831 4.56832C33.4831 4.56832 33.9295 2.33647 31.4744 2.11328C29.2426 1.8901 28.573 3.22921 28.573 3.22921C28.573 3.22921 27.9034 0.77417 24.5557 0.77417C21.4311 0.77417 20.3151 3.67558 20.3151 3.67558C20.3151 3.67558 19.4224 2.33647 16.7442 2.33647C14.7355 2.33647 13.8428 3.89877 13.8428 3.89877C13.8428 3.89877 11.3877 2.78284 10.0486 3.67558Z" fill="#4EA4D9"/>
<path d="M27.0088 27.7796V23.0927L18.0814 27.7796V23.0927H12.7249L11.3858 7.46973H6.92213L5.58301 23.0927H0.226562V36.4838H35.9362V23.0927L27.0088 27.7796ZM13.6177 32.0201H4.69027V27.5564H13.6177V32.0201Z" fill="#4EA4D9"/>
</g>
<defs>
<clipPath id="clip0_137_7890">
<rect width="35.7097" height="35.7097" fill="white" transform="translate(0.226562 0.77417)"/>
</clipPath>
</defs>
</svg>
