<svg width="35" height="35" viewBox="0 0 35 35" fill="none" xmlns="http://www.w3.org/2000/svg">
<path d="M15.8594 24.0625C15.8594 24.3526 15.7441 24.6308 15.539 24.8359C15.3339 25.041 15.0557 25.1562 14.7656 25.1562H10.9375C10.6474 25.1562 10.3692 25.041 10.1641 24.8359C9.95898 24.6308 9.84375 24.3526 9.84375 24.0625C9.84375 23.7724 9.95898 23.4942 10.1641 23.2891C10.3692 23.084 10.6474 22.9688 10.9375 22.9688H14.7656C15.0557 22.9688 15.3339 23.084 15.539 23.2891C15.7441 23.4942 15.8594 23.7724 15.8594 24.0625ZM24.0625 22.9688H20.2344C19.9443 22.9688 19.6661 23.084 19.461 23.2891C19.2559 23.4942 19.1406 23.7724 19.1406 24.0625C19.1406 24.3526 19.2559 24.6308 19.461 24.8359C19.6661 25.041 19.9443 25.1562 20.2344 25.1562H24.0625C24.3526 25.1562 24.6308 25.041 24.8359 24.8359C25.041 24.6308 25.1562 24.3526 25.1562 24.0625C25.1562 23.7724 25.041 23.4942 24.8359 23.2891C24.6308 23.084 24.3526 22.9688 24.0625 22.9688ZM32.8125 29.5312C32.8125 29.8213 32.6973 30.0995 32.4921 30.3046C32.287 30.5098 32.0088 30.625 31.7188 30.625H3.28125C2.99117 30.625 2.71297 30.5098 2.50785 30.3046C2.30273 30.0995 2.1875 29.8213 2.1875 29.5312C2.1875 29.2412 2.30273 28.963 2.50785 28.7579C2.71297 28.5527 2.99117 28.4375 3.28125 28.4375H4.375V12.0312C4.375 11.8281 4.43156 11.629 4.53835 11.4562C4.64514 11.2834 4.79793 11.1438 4.97961 11.053C5.16129 10.9621 5.36467 10.9237 5.56697 10.9419C5.76928 10.9602 5.9625 11.0344 6.125 11.1562L13.125 16.4062V12.0312C13.125 11.8281 13.1816 11.629 13.2884 11.4562C13.3951 11.2834 13.5479 11.1438 13.7296 11.053C13.9113 10.9621 14.1147 10.9237 14.317 10.9419C14.5193 10.9602 14.7125 11.0344 14.875 11.1562L20.1715 15.1279L21.752 4.06602C21.8285 3.5456 22.0891 3.06988 22.4864 2.72521C22.8838 2.38053 23.3916 2.18975 23.9176 2.1875H26.3949C26.9209 2.18975 27.4287 2.38053 27.8261 2.72521C28.2234 3.06988 28.484 3.5456 28.5605 4.06602L30.6113 18.4393C30.6113 18.4393 30.6223 18.5459 30.6223 18.5938V28.4375H31.716C31.8599 28.4371 32.0024 28.4652 32.1354 28.52C32.2684 28.5748 32.3893 28.6553 32.4912 28.7569C32.593 28.8585 32.6738 28.9792 32.729 29.1121C32.7841 29.2449 32.8125 29.3874 32.8125 29.5312ZM22.1676 16.625L23.3338 17.5H28.2707L26.3949 4.375H23.9176L22.1676 16.625ZM6.5625 28.4375H28.4375V19.6875H22.9688C22.7321 19.6875 22.5018 19.6107 22.3125 19.4688L20.3438 17.9922L15.3125 14.2188V18.5938C15.3125 18.7969 15.2559 18.996 15.1491 19.1688C15.0424 19.3416 14.8896 19.4812 14.7079 19.572C14.5262 19.6629 14.3228 19.7013 14.1205 19.6831C13.9182 19.6648 13.725 19.5906 13.5625 19.4688L6.5625 14.2188V28.4375Z" fill="black"/>
</svg>
