<svg width="38" height="40" viewBox="0 0 38 40" fill="none" xmlns="http://www.w3.org/2000/svg">
<path d="M38 19.98C38 8.95 29.488 0 19 0C8.512 0 0 8.95 0 19.98C0 26.055 2.622 31.53 6.726 35.205C6.764 35.245 6.802 35.245 6.802 35.285C7.144 35.565 7.486 35.845 7.866 36.125C8.056 36.245 8.208 36.4025 8.398 36.5625C11.5392 38.8006 15.2449 39.9978 19.038 40C22.8311 39.9978 26.5368 38.8006 29.678 36.5625C29.868 36.4425 30.02 36.285 30.21 36.1625C30.552 35.885 30.932 35.605 31.274 35.325C31.312 35.285 31.35 35.285 31.35 35.245C35.378 31.5275 38 26.055 38 19.98ZM19 37.4825C15.428 37.4825 12.16 36.2825 9.462 34.285C9.5 33.965 9.576 33.6475 9.652 33.3275C9.87918 32.4605 10.2112 31.6279 10.64 30.85C11.058 30.09 11.552 29.41 12.16 28.81C12.73 28.21 13.414 27.6525 14.098 27.2125C14.82 26.7725 15.58 26.4525 16.416 26.2125C17.2588 25.9749 18.1275 25.8547 19 25.855C21.5905 25.8344 24.0861 26.8805 25.954 28.77C26.828 29.69 27.512 30.7692 28.006 32.0075C28.272 32.7275 28.462 33.4867 28.576 34.285C25.7715 36.3604 22.4282 37.4768 19 37.4825ZM13.186 18.9825C12.8519 18.1753 12.6835 17.3029 12.692 16.4225C12.692 15.545 12.844 14.665 13.186 13.865C13.528 13.065 13.984 12.3475 14.554 11.7475C15.124 11.1475 15.808 10.67 16.568 10.31C17.328 9.95 18.164 9.79 19 9.79C19.874 9.79 20.672 9.95 21.432 10.31C22.192 10.67 22.876 11.15 23.446 11.7475C24.016 12.3475 24.472 13.0675 24.814 13.865C25.156 14.665 25.308 15.545 25.308 16.4225C25.308 17.3425 25.156 18.1825 24.814 18.98C24.4858 19.7693 24.0221 20.488 23.446 21.1C22.8644 21.7055 22.1816 22.1928 21.432 22.5375C19.8615 23.2154 18.1005 23.2154 16.53 22.5375C15.7804 22.1928 15.0976 21.7055 14.516 21.1C13.9395 20.4966 13.4868 19.7776 13.186 18.9825ZM30.818 32.2475C30.818 32.1675 30.78 32.1275 30.78 32.0475C30.4069 30.7958 29.856 29.6107 29.146 28.5325C28.4354 27.4464 27.5628 26.4883 26.562 25.695C25.7974 25.0893 24.9685 24.5792 24.092 24.175C24.4889 23.8955 24.8581 23.5747 25.194 23.2175C25.7605 22.6288 26.2581 21.9707 26.676 21.2575C27.5205 19.8033 27.9553 18.1266 27.93 16.4225C27.9424 15.1612 27.7097 13.9106 27.246 12.7475C26.7888 11.6266 26.1308 10.6089 25.308 9.75C24.4844 8.90262 23.5179 8.22436 22.458 7.75C21.3514 7.26213 20.1616 7.01795 18.962 7.0325C17.7622 7.01874 16.5724 7.26378 15.466 7.7525C14.3945 8.22107 13.4248 8.91431 12.616 9.79C11.8068 10.6524 11.1619 11.6699 10.716 12.7875C10.2523 13.9506 10.0196 15.2012 10.032 16.4625C10.032 17.3425 10.146 18.1817 10.374 18.98C10.602 19.82 10.906 20.58 11.324 21.2975C11.704 22.0175 12.236 22.6575 12.806 23.2575C13.148 23.6175 13.528 23.9367 13.946 24.215C13.0656 24.6276 12.2361 25.1514 11.476 25.775C10.488 26.575 9.614 27.5325 8.892 28.5725C8.1754 29.6466 7.62398 30.8328 7.258 32.0875C7.22 32.1675 7.22 32.2475 7.22 32.2875C4.218 29.09 2.356 24.775 2.356 19.98C2.356 10.35 9.842 2.4775 19 2.4775C28.158 2.4775 35.644 10.35 35.644 19.98C35.639 24.5799 33.9039 28.9906 30.818 32.2475Z" fill="#4A96D9"/>
</svg>
